<?xml version="1.0" standalone="no"?>
<!DOCTYPE svg PUBLIC "-//W3C//DTD SVG 20010904//EN"
 "http://www.w3.org/TR/2001/REC-SVG-20010904/DTD/svg10.dtd">
<svg version="1.0" xmlns="http://www.w3.org/2000/svg"
 width="300.000000pt" height="204.000000pt" viewBox="0 0 300.000000 204.000000"
 preserveAspectRatio="xMidYMid meet">

<g transform="translate(0.000000,204.000000) scale(0.100000,-0.100000)"
fill="#000000" stroke="none">
<path d="M615 2026 c-149 -30 -270 -92 -378 -195 -199 -190 -279 -463 -212
-727 8 -32 36 -102 62 -154 39 -80 60 -109 137 -185 69 -69 111 -101 171 -132
79 -41 207 -83 252 -83 13 0 23 -3 23 -6 0 -4 -18 -40 -41 -80 -22 -41 -39
-84 -37 -96 3 -21 10 -24 78 -30 153 -15 264 -55 430 -157 154 -95 330 -167
419 -173 l43 -3 104 180 c57 99 102 184 101 189 -2 5 -37 17 -79 27 -103 24
-230 81 -374 167 -67 39 -131 75 -144 80 -21 8 -20 10 28 46 113 83 208 215
259 361 26 74 28 91 28 235 0 144 -2 161 -28 235 -68 195 -202 347 -384 439
-124 62 -321 89 -458 62z m262 -470 c223 -114 222 -417 -2 -534 -74 -38 -178
-38 -257 1 -160 79 -215 278 -118 430 79 124 246 170 377 103z"/>
<path d="M2142 1953 c-10 -16 -176 -300 -367 -633 -192 -333 -357 -620 -368
-638 l-19 -32 88 -41 c111 -51 318 -121 346 -117 17 2 57 64 174 268 83 146
157 270 163 277 6 7 18 10 26 7 8 -3 79 -118 157 -255 l143 -249 242 0 c206 0
244 2 257 16 9 8 16 20 16 25 0 14 -790 1383 -803 1391 -21 14 -35 8 -55 -19z"/>
</g>
</svg>
